<svg width="18" height="22" viewBox="0 0 18 22" fill="none" xmlns="http://www.w3.org/2000/svg">
<path d="M8.30201 20.6148C8.5234 20.744 8.6341 20.8086 8.79032 20.8421C8.91156 20.8681 9.08844 20.8681 9.20968 20.8421C9.3659 20.8086 9.4766 20.744 9.69799 20.6148C11.646 19.4783 17 15.9084 17 10.9999V7.19994C17 6.12605 17 5.5891 16.8345 5.20795C16.6662 4.82055 16.4986 4.61446 16.1536 4.37085C15.8141 4.13117 15.1486 3.99277 13.8177 3.71597C12.3508 3.41088 11.2243 2.85998 10.1944 2.06326C9.70051 1.68121 9.45357 1.49019 9.26034 1.43808C9.05644 1.38311 8.94356 1.38311 8.73966 1.43808C8.54643 1.49019 8.29949 1.68121 7.80562 2.06326C6.77572 2.85998 5.6492 3.41088 4.1823 3.71597C2.85137 3.99277 2.18591 4.13117 1.84645 4.37085C1.50142 4.61446 1.33379 4.82055 1.16554 5.20795C1 5.5891 1 6.12605 1 7.19994V10.9999C1 15.9084 6.35396 19.4783 8.30201 20.6148Z" stroke="white" stroke-width="2" stroke-linecap="round" stroke-linejoin="round"/>
</svg>
